<svg width="48" height="20" viewBox="0 0 48 20" xmlns="http://www.w3.org/2000/svg"><g fill="none" fill-rule="nonzero"><g fill="#DEDFDF"><path d="M5.32 15.381l-.867-.5 7.974-13.81.866.5z"/><path d="M3.963 13.836h17.51v1H3.963z"/><path d="M13.088 19.132L4.33 14.075l.5-.866 8.758 5.057zM20.696 7.13l-8.758-5.057.5-.866 8.758 5.056z"/><path d="M5.156 6.95l-.5-.866 7.976-4.605.5.866z"/><path d="M20.55 16.03L11.794.865l.866-.5 8.755 15.163zM4.657 5.636h1v9.211h-1z"/><path d="M19.876 5.636h1v9.211h-1z"/><path d="M13.253 18.616l-.5-.866 6.938-4.005.5.866z"/><path d="M21.987 15.116c-.525.831-1.695 1.115-2.608.637s-1.225-1.543-.7-2.375c.525-.831 1.695-1.115 2.608-.637.918.483 1.23 1.543.7 2.375M6.756 7.105c-.524.831-1.694 1.115-2.607.637-.913-.478-1.225-1.543-.7-2.375.525-.831 1.695-1.115 2.608-.637.913.483 1.224 1.544.7 2.375M3.455 15.116c-.525-.832-.214-1.892.7-2.375.912-.478 2.077-.194 2.607.637.525.832.213 1.892-.7 2.375-.918.478-2.083.194-2.607-.637M18.685 7.105c-.525-.831-.213-1.892.7-2.375.912-.478 2.077-.194 2.607.637.525.832.213 1.892-.7 2.375-.913.478-2.082.194-2.607-.637M12.72 19.99c-1.054 0-1.907-.777-1.907-1.738 0-.96.853-1.737 1.908-1.737s1.907.777 1.907 1.737c0 .956-.852 1.738-1.907 1.738M12.72 3.968c-1.054 0-1.907-.776-1.907-1.737 0-.961.853-1.738 1.908-1.738s1.907.777 1.907 1.738c0 .96-.852 1.737-1.907 1.737"/></g><g fill="#E535AB"><path d="M29.32 15.381l-.867-.5 7.974-13.81.866.5z"/><path d="M27.963 13.836h17.51v1h-17.51z"/><path d="M37.088 19.132l-8.758-5.057.5-.866 8.758 5.057zM44.696 7.13l-8.758-5.057.5-.866 8.758 5.056z"/><path d="M29.156 6.95l-.5-.866 7.976-4.605.5.866z"/><path d="M44.55 16.03L35.794.865l.866-.5 8.755 15.163zM28.657 5.636h1v9.211h-1z"/><path d="M43.876 5.636h1v9.211h-1z"/><path d="M37.253 18.616l-.5-.866 6.938-4.005.5.866z"/><path d="M45.987 15.116c-.525.831-1.695 1.115-2.608.637s-1.225-1.543-.7-2.375c.525-.831 1.695-1.115 2.608-.637.918.483 1.23 1.543.7 2.375M30.756 7.105c-.524.831-1.694 1.115-2.607.637-.913-.478-1.225-1.543-.7-2.375.525-.831 1.695-1.115 2.608-.637.913.483 1.224 1.544.7 2.375M27.455 15.116c-.525-.832-.214-1.892.7-2.375.912-.478 2.077-.194 2.607.637.525.832.213 1.892-.7 2.375-.918.478-2.083.194-2.607-.637M42.685 7.105c-.525-.831-.213-1.892.7-2.375.912-.478 2.077-.194 2.607.637.525.832.213 1.892-.7 2.375-.913.478-2.082.194-2.607-.637M36.72 19.99c-1.054 0-1.907-.777-1.907-1.738 0-.96.853-1.737 1.908-1.737s1.907.777 1.907 1.737c0 .956-.852 1.738-1.907 1.738M36.72 3.968c-1.054 0-1.907-.776-1.907-1.737 0-.961.853-1.738 1.908-1.738s1.907.777 1.907 1.738c0 .96-.852 1.737-1.907 1.737"/></g></g></svg>