<svg width="140" height="91" viewBox="0 0 140 91" xmlns="http://www.w3.org/2000/svg"><g fill-rule="nonzero" fill="none"><g transform="translate(0 60)"><ellipse fill="#2DC5DB" cx="133.649" cy="17.572" rx="5.588" ry="5.699"/><path d="M0 20.961l2.682-4.65c1.341.957 3.99 2.188 5.868 2.188 1.442 0 2.682-.547 2.682-2.12 0-1.539-1.945-2.086-3.923-2.872-2.28-.89-4.56-2.291-4.56-5.984C2.75 2.599 6.337 0 11.534 0c3.42 0 6.47 1.744 8.047 3.59l-3.42 3.625c-1.543-1.334-3.253-2.325-4.895-2.325-1.342 0-2.347.547-2.347 1.778 0 1.675 1.441 2.086 3.889 3.112 2.347.991 4.761 2.427 4.761 5.95 0 4.786-3.822 7.864-9.254 7.864-3.822 0-7.04-1.607-8.315-2.633zm23.112 2.154h-5.565L19.96 9.13l.2-3.522h4.628l.067 1.88c1.307-1.47 3.05-2.393 5.297-2.393 2.783 0 4.46 1.3 4.493 4.24a13.1 13.1 0 0 1-.167 1.88l-2.08 11.9H26.8l1.744-10.224c.1-.547.268-1.333.268-1.983 0-.684-.268-1.436-1.274-1.436-1.442 0-2.28 1.094-2.515 2.53l-1.911 11.113zM51.925 6.463l-2.247 12.96-.235 3.692h-4.727v-1.607l-.168-.034c-1.173 1.402-2.682 2.154-4.694 2.154-3.587 0-5.197-2.701-5.197-6.394 0-7.01 3.823-12.14 10.83-12.14 1.408 0 3.923.343 6.438 1.369zm-7.41 11.147l1.408-8.24c-.369-.172-.905-.274-1.509-.274-3.05 0-4.157 4.684-4.157 7.488 0 1.641.368 2.975 1.978 2.975 1.14 0 1.944-.752 2.28-1.949zm12.249 5.505l-1.24 7.181h-5.6l4.124-23.902c2.883-.957 5.968-1.3 7.712-1.3 4.526 0 6.772 2.497 6.772 7.113 0 7.044-3.688 11.455-9.086 11.455-1.073 0-2.079-.273-2.682-.547zm2.347-13.54l-1.677 9.71c.57.206 1.107.308 1.576.308 3.118 0 3.923-4.41 3.923-7.249 0-1.846-.47-3.043-2.012-3.043-.704 0-1.408.102-1.81.273v.001zm19.76 9.163c1.71 0 3.386-.923 5.096-2.256l2.246 3.795c-2.816 2.257-5.398 3.249-8.483 3.249-5.364 0-8.583-3.351-8.583-9.233C69.147 3.556 75.517 0 81.117 0c3.721 0 6.203 2.017 7.745 4.992l-4.158 2.633c-1.006-1.846-2.246-2.77-3.99-2.77-3.151 0-5.565 3.249-5.565 8.686 0 3.214 1.14 5.197 3.721 5.197h.001zm14.394.753c1.643 0 2.615-1.47 3.185-4.822.202-1.094.269-2.086.269-2.838 0-1.641-.503-2.633-1.677-2.633-1.576 0-2.615 1.573-3.118 4.411a18.41 18.41 0 0 0-.302 3.146c0 1.505.403 2.736 1.643 2.736zm-7.141-5.437c1.24-7.181 6.001-8.96 9.857-8.96 2.38 0 6.572.924 6.572 6.6 0 .753-.034 1.642-.168 2.565-1.04 6.702-5.197 9.403-9.958 9.403-4.157 0-6.504-2.462-6.504-6.839 0-.82.033-1.812.2-2.77l.001.001zm23.447-1.642l-1.877 10.703h-5.6l2.448-14.19.134-3.317h4.493l.1 2.428c1.241-2.155 2.985-2.941 4.393-2.941.972 0 2.012.24 2.682.684l-1.61 4.753c-.636-.342-1.441-.616-2.28-.616-1.441 0-2.58.89-2.883 2.496zm15.166-2.188c0-.752-.57-1.094-1.173-1.094-1.978 0-3.085 2.154-3.52 4 1.944-.102 4.693-1.06 4.693-2.906zm-.368-5.13c3.285 0 5.297 1.54 5.297 4.48 0 5.745-6.37 6.77-9.958 7.01-.033 1.539.771 2.838 2.817 2.838 1.609 0 3.151-.718 4.358-1.436l1.174 3.659c-.67.479-3.32 2.017-7.075 2.017-4.895 0-6.907-3.009-6.907-7.044 0-5.813 3.79-11.523 10.294-11.523v-.001z" fill="#FFF"/></g><path fill="#FFF" d="M54.916 12.119h30.501v31.695H54.916z"/><path d="M69.106.142c.909-.363 1.84.047 2.696.366 2.08.845 4.067 1.915 6.04 2.998 2.666 1.485 5.28 3.06 7.841 4.72 1.944 1.277 3.882 2.575 5.679 4.07.521.47 1.099.92 1.443 1.556.375.94.466 1.968.601 2.968.446 4.194.467 8.419.454 12.634-.055 2.89-.14 5.783-.446 8.659-.102.865-.211 1.734-.443 2.575-.248.994-1.129 1.585-1.835 2.215-2.948 2.369-6.151 4.364-9.358 6.322-3.209 1.9-6.442 3.785-9.87 5.233-.781.282-1.6.678-2.447.496-.78-.183-1.527-.498-2.264-.815-2.043-.914-4.018-1.979-5.974-3.078a134.717 134.717 0 0 1-7.714-4.708c-1.823-1.223-3.654-2.451-5.319-3.904-.51-.473-1.085-.958-1.272-1.677-.318-1.114-.43-2.278-.548-3.43-.348-3.869-.383-7.756-.367-11.637.056-2.984.137-5.972.462-8.94.115-.916.224-1.845.517-2.723.266-.718.891-1.187 1.426-1.679 1.964-1.653 4.1-3.063 6.239-4.453 3.68-2.348 7.44-4.573 11.346-6.485 1.014-.486 2.04-.957 3.113-1.283zm-11.362 39c1.582 1.303 5.58 3.343 10.327 3.343 6.745 0 11.493-3.907 11.493-9.983 0-4.471-2.999-6.294-5.914-7.553-3.04-1.302-4.83-1.823-4.83-3.95 0-1.562 1.25-2.257 2.915-2.257 2.04 0 4.164 1.259 6.08 2.952l4.247-4.601c-1.957-2.344-5.746-4.558-9.994-4.558-6.454 0-10.91 3.299-10.91 9.55 0 4.687 2.832 6.467 5.663 7.595 2.457.999 4.872 1.693 4.872 3.646 0 1.997-1.54 2.691-3.331 2.691-2.332 0-5.622-1.562-7.287-2.778l-3.331 5.903z" fill="#11639C"/><ellipse fill="#2DC5DB" cx="79.785" cy="37.754" rx="5.631" ry="5.593"/></g></svg>